<?xml version="1.0" encoding="UTF-8"?>
<svg xmlns="http://www.w3.org/2000/svg" xmlns:xlink="http://www.w3.org/1999/xlink" width="128px" height="128px" viewBox="0 0 128 128" version="1.1">
<g id="surface1">
<path style=" stroke:none;fill-rule:nonzero;fill:rgb(5.490196%,32.156864%,90.588236%);fill-opacity:1;" d="M 0 0 C 42.238281 0 84.480469 0 128 0 C 128 42.238281 128 84.480469 128 128 C 85.761719 128 43.519531 128 0 128 C 0 85.761719 0 43.519531 0 0 Z M 0 0 "/>
<path style=" stroke:none;fill-rule:nonzero;fill:rgb(97.647059%,98.823529%,98.823529%);fill-opacity:1;" d="M 41.117188 26.054688 C 43.925781 25.9375 46.359375 27.375 48.371094 29.207031 C 48.605469 29.425781 48.835938 29.644531 49.066406 29.867188 C 49.167969 29.957031 49.265625 30.050781 49.371094 30.144531 C 50.257812 30.992188 50.96875 31.953125 51.675781 32.949219 C 51.726562 33.023438 51.777344 33.097656 51.832031 33.171875 C 52.660156 34.351562 53.371094 35.585938 54.042969 36.859375 C 54.105469 36.972656 54.105469 36.972656 54.167969 37.089844 C 55.503906 39.628906 56.695312 42.3125 57.402344 45.097656 C 57.523438 45.550781 57.683594 45.992188 57.839844 46.433594 C 57.933594 46.746094 58 47.039062 58.058594 47.359375 C 58.179688 47.96875 58.347656 48.550781 58.527344 49.144531 C 58.929688 50.507812 59.203125 51.882812 59.460938 53.28125 C 59.480469 53.40625 59.503906 53.53125 59.527344 53.65625 C 59.867188 55.488281 60.148438 57.304688 60.296875 59.160156 C 60.332031 59.574219 60.378906 59.984375 60.425781 60.398438 C 60.6875 62.882812 60.714844 65.378906 60.71875 67.875 C 60.71875 68.027344 60.71875 68.183594 60.71875 68.34375 C 60.722656 71.0625 60.5625 73.734375 60.238281 76.433594 C 60.195312 76.800781 60.15625 77.164062 60.117188 77.53125 C 59.96875 78.914062 59.710938 80.261719 59.398438 81.621094 C 59.273438 82.171875 59.175781 82.726562 59.089844 83.289062 C 58.9375 84.210938 58.667969 85.082031 58.371094 85.96875 C 58.238281 86.363281 58.125 86.757812 58.019531 87.160156 C 56.628906 92.335938 53.722656 98.652344 48.878906 101.464844 C 48.019531 101.949219 47.199219 102.328125 46.222656 102.519531 C 46.09375 102.546875 45.964844 102.574219 45.828125 102.601562 C 42.9375 102.84375 40.503906 101.867188 38.304688 100.011719 C 37.242188 99.078125 36.308594 98.0625 35.4375 96.949219 C 35.296875 96.773438 35.296875 96.773438 35.152344 96.597656 C 34.375 95.625 33.726562 94.589844 33.09375 93.515625 C 32.96875 93.308594 32.839844 93.101562 32.714844 92.894531 C 32.167969 91.984375 31.71875 91.039062 31.28125 90.074219 C 31.183594 89.863281 31.082031 89.652344 30.980469 89.441406 C 29.734375 86.8125 28.71875 83.960938 28.070312 81.125 C 27.980469 80.757812 27.871094 80.402344 27.75 80.046875 C 27.425781 79.078125 27.234375 78.105469 27.074219 77.097656 C 26.980469 76.515625 26.871094 75.949219 26.730469 75.378906 C 26.488281 74.347656 26.371094 73.300781 26.246094 72.25 C 26.207031 71.953125 26.171875 71.652344 26.132812 71.351562 C 26.109375 71.15625 26.082031 70.957031 26.058594 70.761719 C 25.992188 70.199219 25.914062 69.636719 25.832031 69.078125 C 25.503906 66.570312 25.445312 64.066406 25.457031 61.542969 C 25.460938 61.203125 25.460938 60.863281 25.460938 60.527344 C 25.460938 57.945312 25.546875 55.414062 25.875 52.851562 C 25.886719 52.746094 25.902344 52.640625 25.914062 52.53125 C 26.523438 47.667969 26.523438 47.667969 27.125 45.457031 C 27.226562 45.074219 27.300781 44.695312 27.363281 44.304688 C 27.507812 43.488281 27.746094 42.699219 27.984375 41.902344 C 28.019531 41.785156 28.019531 41.785156 28.054688 41.667969 C 28.46875 40.308594 28.941406 38.988281 29.511719 37.6875 C 29.554688 37.589844 29.597656 37.492188 29.640625 37.386719 C 30.785156 34.742188 32.085938 32.261719 34.015625 30.105469 C 34.089844 30.015625 34.164062 29.925781 34.238281 29.835938 C 35.644531 28.160156 37.9375 26.347656 40.199219 26.082031 C 40.660156 26.070312 40.660156 26.070312 41.117188 26.054688 Z M 41.117188 26.054688 "/>
<path style=" stroke:none;fill-rule:nonzero;fill:rgb(97.647059%,98.823529%,98.823529%);fill-opacity:1;" d="M 83.882812 25.359375 C 84.09375 25.363281 84.304688 25.363281 84.515625 25.359375 C 86.179688 25.414062 87.730469 26.390625 89.007812 27.378906 C 89.167969 27.5 89.167969 27.5 89.332031 27.625 C 90.738281 28.726562 91.972656 30.003906 93.015625 31.449219 C 93.15625 31.648438 93.304688 31.84375 93.449219 32.039062 C 94.222656 33.085938 94.882812 34.1875 95.527344 35.320312 C 95.621094 35.480469 95.621094 35.480469 95.714844 35.648438 C 96.617188 37.242188 97.402344 38.925781 98.015625 40.652344 C 98.050781 40.753906 98.089844 40.851562 98.125 40.957031 C 98.203125 41.160156 98.277344 41.367188 98.351562 41.574219 C 98.464844 41.882812 98.578125 42.195312 98.695312 42.503906 C 98.730469 42.601562 98.769531 42.703125 98.804688 42.804688 C 98.878906 43 98.953125 43.195312 99.027344 43.390625 C 99.214844 43.894531 99.371094 44.390625 99.496094 44.914062 C 99.585938 45.269531 99.703125 45.617188 99.816406 45.96875 C 100.089844 46.796875 100.320312 47.59375 100.4375 48.460938 C 100.519531 48.929688 100.65625 49.375 100.792969 49.828125 C 101.050781 50.71875 101.203125 51.59375 101.320312 52.507812 C 101.414062 53.21875 101.542969 53.910156 101.695312 54.605469 C 101.945312 55.761719 102.03125 56.914062 102.113281 58.089844 C 102.160156 58.804688 102.246094 59.511719 102.34375 60.21875 C 102.507812 61.574219 102.539062 62.917969 102.539062 64.277344 C 102.539062 64.476562 102.539062 64.671875 102.539062 64.871094 C 102.539062 65.28125 102.539062 65.695312 102.539062 66.105469 C 102.539062 66.519531 102.542969 66.9375 102.542969 67.351562 C 102.566406 73.695312 102.566406 73.695312 102.164062 75.257812 C 102.125 75.578125 102.089844 75.902344 102.058594 76.222656 C 101.949219 77.242188 101.800781 78.253906 101.628906 79.265625 C 101.585938 79.535156 101.542969 79.800781 101.496094 80.070312 C 101.347656 80.96875 101.179688 81.863281 100.96875 82.75 C 100.953125 82.832031 100.933594 82.914062 100.914062 83 C 100.769531 83.597656 100.585938 84.175781 100.375 84.75 C 100.289062 85.027344 100.226562 85.285156 100.167969 85.566406 C 100.019531 86.269531 99.777344 86.945312 99.539062 87.628906 C 99.460938 87.847656 99.382812 88.070312 99.304688 88.292969 C 98.363281 91.003906 98.363281 91.003906 97.710938 92.132812 C 97.53125 92.453125 97.53125 92.453125 97.375 92.835938 C 97.167969 93.335938 96.898438 93.792969 96.621094 94.257812 C 96.542969 94.390625 96.542969 94.390625 96.460938 94.527344 C 94.617188 97.613281 92.097656 100.664062 88.519531 101.683594 C 86.261719 102.226562 83.960938 101.707031 81.984375 100.554688 C 81.140625 100.027344 80.386719 99.386719 79.644531 98.726562 C 79.578125 98.664062 79.507812 98.605469 79.441406 98.542969 C 76.738281 96.097656 74.820312 92.730469 73.246094 89.480469 C 73.183594 89.359375 73.183594 89.359375 73.121094 89.230469 C 72.253906 87.457031 71.597656 85.632812 70.96875 83.761719 C 70.945312 83.6875 70.917969 83.613281 70.894531 83.535156 C 70.601562 82.667969 70.339844 81.804688 70.125 80.914062 C 70.003906 80.4375 69.847656 79.976562 69.6875 79.511719 C 69.382812 78.578125 69.199219 77.660156 69.054688 76.691406 C 68.992188 76.273438 68.902344 75.867188 68.792969 75.460938 C 68.460938 74.191406 68.335938 72.878906 68.167969 71.578125 C 68.058594 70.710938 67.933594 69.84375 67.792969 68.976562 C 67.332031 66.042969 67.425781 63.019531 67.421875 60.058594 C 67.421875 59.917969 67.421875 59.777344 67.421875 59.632812 C 67.417969 57.058594 67.445312 54.492188 67.769531 51.933594 C 67.792969 51.761719 67.8125 51.589844 67.835938 51.417969 C 67.886719 50.992188 67.941406 50.5625 68 50.136719 C 68.027344 49.90625 68.058594 49.679688 68.085938 49.449219 C 68.320312 47.644531 68.671875 45.910156 69.136719 44.152344 C 69.242188 43.753906 69.320312 43.351562 69.398438 42.949219 C 69.542969 42.25 69.773438 41.601562 70.023438 40.933594 C 70.152344 40.558594 70.253906 40.191406 70.339844 39.808594 C 70.484375 39.191406 70.699219 38.632812 70.953125 38.054688 C 71.175781 37.542969 71.367188 37.019531 71.558594 36.492188 C 71.699219 36.15625 71.871094 35.867188 72.058594 35.554688 C 72.175781 35.277344 72.28125 34.996094 72.382812 34.714844 C 73.199219 32.839844 74.417969 31.066406 75.734375 29.511719 C 75.824219 29.402344 75.917969 29.292969 76.011719 29.183594 C 78.175781 26.707031 80.578125 25.304688 83.882812 25.359375 Z M 83.882812 25.359375 "/>
<path style=" stroke:none;fill-rule:nonzero;fill:rgb(0.784314%,1.176471%,1.176471%);fill-opacity:1;" d="M 83.238281 22.835938 C 83.34375 22.835938 83.453125 22.835938 83.566406 22.839844 C 84.433594 22.851562 85.214844 22.984375 86.042969 23.230469 C 86.144531 23.25 86.246094 23.269531 86.347656 23.289062 C 88.769531 23.808594 90.773438 25.550781 92.511719 27.214844 C 92.664062 27.359375 92.816406 27.503906 92.96875 27.648438 C 93.75 28.398438 94.40625 29.238281 95.050781 30.105469 C 95.140625 30.21875 95.140625 30.21875 95.226562 30.339844 C 96.503906 32.066406 97.542969 33.902344 98.539062 35.800781 C 98.597656 35.910156 98.660156 36.023438 98.71875 36.136719 C 99.039062 36.753906 99.320312 37.375 99.574219 38.023438 C 99.695312 38.332031 99.832031 38.632812 99.976562 38.933594 C 100.210938 39.441406 100.382812 39.941406 100.535156 40.480469 C 100.625 40.777344 100.734375 41.054688 100.851562 41.339844 C 101.089844 41.921875 101.273438 42.515625 101.453125 43.117188 C 101.558594 43.457031 101.679688 43.789062 101.808594 44.125 C 102.082031 44.867188 102.261719 45.625 102.445312 46.390625 C 102.523438 46.710938 102.601562 47.03125 102.683594 47.347656 C 102.941406 48.367188 103.179688 49.386719 103.398438 50.414062 C 103.417969 50.496094 103.433594 50.578125 103.453125 50.664062 C 103.867188 52.609375 104.15625 54.5625 104.414062 56.535156 C 104.433594 56.671875 104.453125 56.808594 104.46875 56.949219 C 105.414062 64.136719 105.304688 71.585938 104.125 78.738281 C 104.058594 79.167969 104.007812 79.601562 103.953125 80.035156 C 103.816406 81.097656 103.570312 82.128906 103.320312 83.171875 C 103.292969 83.269531 103.269531 83.367188 103.246094 83.46875 C 102.902344 84.902344 102.519531 86.308594 102.042969 87.703125 C 101.960938 87.976562 101.875 88.25 101.792969 88.527344 C 101.71875 88.765625 101.644531 89.003906 101.570312 89.246094 C 101.535156 89.363281 101.5 89.480469 101.460938 89.601562 C 101.011719 91.015625 100.335938 92.324219 99.667969 93.648438 C 99.527344 93.925781 99.390625 94.203125 99.257812 94.480469 C 98.566406 95.917969 97.671875 97.222656 96.710938 98.488281 C 96.640625 98.582031 96.570312 98.675781 96.5 98.773438 C 95.421875 100.179688 94.140625 101.398438 92.679688 102.398438 C 92.578125 102.472656 92.476562 102.546875 92.371094 102.625 C 90.160156 104.140625 87.308594 104.550781 84.679688 104.238281 C 82.851562 103.890625 81.152344 102.992188 79.644531 101.925781 C 79.539062 101.851562 79.429688 101.773438 79.320312 101.695312 C 77.480469 100.28125 75.851562 98.507812 74.546875 96.59375 C 74.496094 96.515625 74.445312 96.441406 74.390625 96.363281 C 74.039062 95.851562 73.699219 95.335938 73.363281 94.816406 C 73.292969 94.707031 73.292969 94.707031 73.222656 94.597656 C 73.085938 94.390625 72.953125 94.179688 72.820312 93.96875 C 72.746094 93.851562 72.671875 93.730469 72.59375 93.605469 C 72.421875 93.289062 72.34375 93.035156 72.296875 92.679688 C 72.21875 92.679688 72.140625 92.679688 72.058594 92.679688 C 70.84375 90.210938 69.71875 87.710938 68.859375 85.097656 C 68.824219 84.984375 68.785156 84.875 68.746094 84.757812 C 68.242188 83.234375 67.773438 81.707031 67.386719 80.148438 C 67.320312 79.886719 67.25 79.628906 67.179688 79.371094 C 66.222656 75.792969 65.707031 72.125 65.335938 68.449219 C 65.304688 68.160156 65.273438 67.871094 65.246094 67.582031 C 64.777344 63.03125 64.710938 58.359375 65.183594 53.808594 C 65.214844 53.511719 65.242188 53.21875 65.273438 52.921875 C 65.390625 51.734375 65.523438 50.558594 65.726562 49.382812 C 65.789062 48.992188 65.832031 48.601562 65.875 48.207031 C 65.996094 47.128906 66.234375 46.070312 66.464844 45.007812 C 66.5625 44.550781 66.648438 44.097656 66.730469 43.636719 C 66.816406 43.160156 66.925781 42.707031 67.082031 42.246094 C 67.226562 41.808594 67.339844 41.386719 67.417969 40.9375 C 67.566406 40.1875 67.8125 39.480469 68.066406 38.761719 C 68.113281 38.632812 68.15625 38.5 68.203125 38.367188 C 68.460938 37.625 68.75 36.90625 69.082031 36.195312 C 69.210938 35.921875 69.320312 35.644531 69.429688 35.363281 C 70.691406 32.167969 72.535156 29.273438 74.902344 26.785156 C 74.972656 26.707031 75.042969 26.632812 75.117188 26.554688 C 76.4375 25.160156 78.125 24.105469 79.910156 23.421875 C 80.023438 23.378906 80.023438 23.378906 80.136719 23.335938 C 81.152344 22.96875 82.160156 22.832031 83.238281 22.835938 Z M 80.710938 25.71875 C 80.640625 25.75 80.570312 25.78125 80.496094 25.8125 C 79.429688 26.292969 78.503906 26.828125 77.628906 27.613281 C 77.464844 27.753906 77.464844 27.753906 77.296875 27.898438 C 75.011719 29.890625 73.253906 32.613281 72.066406 35.386719 C 71.917969 35.730469 71.753906 36.066406 71.59375 36.40625 C 71.273438 37.09375 71.011719 37.785156 70.765625 38.5 C 70.664062 38.800781 70.554688 39.097656 70.4375 39.394531 C 70.304688 39.761719 70.207031 40.125 70.113281 40.507812 C 69.996094 40.960938 69.84375 41.40625 69.695312 41.851562 C 69.445312 42.632812 69.230469 43.402344 69.074219 44.207031 C 69.007812 44.546875 68.929688 44.882812 68.847656 45.21875 C 68.445312 46.855469 68.195312 48.492188 67.992188 50.164062 C 67.941406 50.589844 67.886719 51.019531 67.832031 51.445312 C 67.472656 54.316406 67.414062 57.167969 67.421875 60.058594 C 67.421875 60.203125 67.421875 60.351562 67.421875 60.5 C 67.429688 64.789062 67.484375 69.148438 68.449219 73.351562 C 68.527344 73.707031 68.566406 74.066406 68.605469 74.429688 C 68.703125 75.183594 68.851562 75.914062 69.039062 76.652344 C 69.152344 77.109375 69.246094 77.5625 69.324219 78.023438 C 69.441406 78.703125 69.640625 79.339844 69.859375 79.992188 C 70.085938 80.683594 70.308594 81.367188 70.472656 82.074219 C 70.625 82.722656 70.84375 83.335938 71.078125 83.957031 C 71.195312 84.292969 71.300781 84.621094 71.402344 84.964844 C 71.859375 86.503906 72.535156 87.976562 73.203125 89.4375 C 73.300781 89.644531 73.394531 89.855469 73.492188 90.0625 C 73.9375 91.023438 74.453125 91.90625 75.023438 92.800781 C 75.121094 92.964844 75.21875 93.125 75.316406 93.289062 C 76.339844 94.992188 77.5625 96.578125 78.933594 98.015625 C 79.011719 98.101562 79.089844 98.1875 79.171875 98.277344 C 81.035156 100.246094 83.535156 101.75 86.277344 101.875 C 88.832031 101.925781 91.019531 100.894531 92.851562 99.152344 C 94.183594 97.84375 95.273438 96.453125 96.234375 94.855469 C 96.398438 94.585938 96.5625 94.316406 96.730469 94.050781 C 97.164062 93.367188 97.515625 92.734375 97.777344 91.96875 C 97.894531 91.765625 98.015625 91.5625 98.132812 91.359375 C 98.441406 90.796875 98.628906 90.171875 98.847656 89.566406 C 98.980469 89.191406 99.121094 88.816406 99.257812 88.441406 C 99.367188 88.152344 99.472656 87.859375 99.578125 87.570312 C 99.628906 87.433594 99.679688 87.296875 99.730469 87.15625 C 100.03125 86.320312 100.257812 85.5 100.429688 84.628906 C 100.496094 84.308594 100.574219 84.007812 100.675781 83.695312 C 101.132812 82.222656 101.417969 80.699219 101.667969 79.175781 C 101.710938 78.902344 101.757812 78.628906 101.804688 78.355469 C 101.960938 77.425781 102.085938 76.507812 102.136719 75.570312 C 102.164062 75.257812 102.164062 75.257812 102.21875 75.039062 C 102.796875 72.648438 102.554688 69.867188 102.550781 67.417969 C 102.546875 66.90625 102.550781 66.398438 102.550781 65.890625 C 102.554688 63.511719 102.558594 61.140625 102.164062 58.785156 C 102.144531 58.574219 102.128906 58.363281 102.117188 58.152344 C 102.03125 56.851562 101.914062 55.59375 101.632812 54.320312 C 101.480469 53.613281 101.371094 52.910156 101.28125 52.191406 C 101.164062 51.296875 100.976562 50.449219 100.722656 49.585938 C 100.558594 49.039062 100.433594 48.5 100.332031 47.941406 C 100.1875 47.160156 99.957031 46.433594 99.695312 45.6875 C 99.527344 45.195312 99.375 44.707031 99.257812 44.199219 C 98.914062 42.746094 98.339844 41.367188 97.726562 40.007812 C 97.578125 39.671875 97.441406 39.339844 97.3125 39 C 96.8125 37.734375 96.214844 36.492188 95.527344 35.320312 C 95.441406 35.167969 95.355469 35.015625 95.269531 34.867188 C 94.105469 32.832031 92.738281 30.988281 91.140625 29.273438 C 91.050781 29.175781 90.964844 29.082031 90.871094 28.980469 C 90.058594 28.128906 89.144531 27.457031 88.179688 26.785156 C 88.046875 26.691406 88.046875 26.691406 87.914062 26.597656 C 86.808594 25.84375 85.484375 25.371094 84.148438 25.363281 C 83.96875 25.355469 83.789062 25.351562 83.609375 25.34375 C 82.121094 25.304688 82.121094 25.304688 80.710938 25.71875 Z M 80.710938 25.71875 "/>
<path style=" stroke:none;fill-rule:nonzero;fill:rgb(0.784314%,0.784314%,1.176471%);fill-opacity:1;" d="M 44.800781 24.179688 C 44.929688 24.21875 45.058594 24.257812 45.191406 24.300781 C 46.308594 24.679688 47.269531 25.292969 48.238281 25.957031 C 48.363281 26.042969 48.492188 26.128906 48.621094 26.214844 C 50.386719 27.5 51.96875 29.148438 53.214844 30.933594 C 53.292969 31.042969 53.292969 31.042969 53.375 31.15625 C 54.488281 32.730469 55.484375 34.351562 56.363281 36.066406 C 56.402344 36.140625 56.441406 36.214844 56.480469 36.292969 C 57.269531 37.832031 57.964844 39.378906 58.546875 41.007812 C 58.601562 41.160156 58.660156 41.3125 58.714844 41.464844 C 58.867188 41.894531 59.019531 42.320312 59.171875 42.75 C 59.234375 42.925781 59.296875 43.101562 59.363281 43.28125 C 59.703125 44.230469 60.023438 45.171875 60.253906 46.15625 C 60.316406 46.417969 60.386719 46.675781 60.460938 46.929688 C 61.214844 49.496094 61.726562 52.117188 62.140625 54.753906 C 62.15625 54.847656 62.167969 54.941406 62.183594 55.039062 C 62.84375 59.28125 63.085938 63.503906 63.089844 67.796875 C 63.089844 68.070312 63.089844 68.34375 63.089844 68.617188 C 63.09375 70.390625 63.085938 72.148438 62.871094 73.910156 C 62.808594 74.441406 62.785156 74.972656 62.761719 75.507812 C 62.710938 76.601562 62.542969 77.667969 62.355469 78.75 C 62.324219 78.941406 62.289062 79.136719 62.257812 79.328125 C 62.210938 79.613281 62.160156 79.898438 62.113281 80.183594 C 62.011719 80.777344 61.917969 81.367188 61.832031 81.960938 C 61.695312 82.878906 61.507812 83.773438 61.269531 84.667969 C 61.171875 85.035156 61.085938 85.402344 61 85.769531 C 60.804688 86.558594 60.539062 87.324219 60.277344 88.089844 C 60.070312 88.699219 59.878906 89.304688 59.695312 89.921875 C 59.378906 90.972656 58.992188 91.96875 58.480469 92.941406 C 58.324219 93.246094 58.191406 93.554688 58.058594 93.867188 C 57.171875 95.871094 56.019531 97.738281 54.636719 99.4375 C 54.558594 99.539062 54.480469 99.636719 54.398438 99.742188 C 52.691406 101.894531 50.664062 103.464844 48.117188 104.527344 C 48.035156 104.5625 47.953125 104.597656 47.863281 104.632812 C 46.84375 105.042969 45.835938 105.039062 44.75 105.042969 C 44.667969 105.042969 44.589844 105.046875 44.507812 105.046875 C 43.050781 105.046875 41.722656 104.925781 40.429688 104.199219 C 40.230469 104.089844 40.027344 103.988281 39.820312 103.894531 C 37.246094 102.699219 35.101562 100.632812 33.421875 98.371094 C 33.367188 98.296875 33.308594 98.222656 33.25 98.144531 C 32.496094 97.148438 31.800781 96.132812 31.171875 95.050781 C 31.128906 94.980469 31.085938 94.90625 31.042969 94.832031 C 30.363281 93.664062 29.742188 92.472656 29.15625 91.257812 C 29.101562 91.144531 29.101562 91.144531 29.042969 91.027344 C 28.609375 90.128906 28.210938 89.222656 27.867188 88.285156 C 27.738281 87.933594 27.738281 87.933594 27.554688 87.585938 C 27.382812 87.238281 27.265625 86.90625 27.15625 86.535156 C 27.117188 86.398438 27.074219 86.265625 27.035156 86.125 C 26.96875 85.910156 26.96875 85.910156 26.902344 85.6875 C 26.808594 85.378906 26.710938 85.070312 26.613281 84.761719 C 26.589844 84.683594 26.566406 84.605469 26.539062 84.523438 C 26.414062 84.121094 26.289062 83.71875 26.160156 83.320312 C 25.847656 82.359375 25.589844 81.394531 25.367188 80.410156 C 25.285156 80.046875 25.195312 79.683594 25.101562 79.324219 C 24.738281 77.933594 24.464844 76.542969 24.234375 75.128906 C 24.179688 74.800781 24.121094 74.480469 24.058594 74.15625 C 23.765625 72.578125 23.59375 70.996094 23.445312 69.398438 C 23.433594 69.292969 23.425781 69.1875 23.414062 69.078125 C 23.386719 68.769531 23.355469 68.460938 23.328125 68.148438 C 23.320312 68.058594 23.3125 67.96875 23.304688 67.878906 C 23.164062 66.277344 23.089844 64.683594 23.082031 63.078125 C 23.082031 62.992188 23.082031 62.910156 23.082031 62.820312 C 23.078125 62.183594 23.074219 61.546875 23.074219 60.910156 C 23.074219 60.816406 23.074219 60.722656 23.074219 60.628906 C 23.066406 57.804688 23.15625 55.035156 23.53125 52.234375 C 23.585938 51.796875 23.617188 51.367188 23.640625 50.929688 C 23.691406 50.164062 23.820312 49.4375 23.984375 48.6875 C 24.175781 47.789062 24.34375 46.894531 24.472656 45.984375 C 24.605469 45.089844 24.828125 44.25 25.097656 43.386719 C 25.238281 42.933594 25.351562 42.472656 25.460938 42.007812 C 26.039062 39.59375 26.914062 37.183594 28.078125 34.988281 C 28.21875 34.703125 28.339844 34.410156 28.464844 34.117188 C 29.21875 32.410156 30.292969 30.878906 31.40625 29.394531 C 31.476562 29.296875 31.546875 29.203125 31.621094 29.105469 C 32.757812 27.621094 34.097656 26.367188 35.675781 25.363281 C 35.742188 25.320312 35.808594 25.277344 35.878906 25.230469 C 38.53125 23.550781 41.816406 23.144531 44.800781 24.179688 Z M 35.792969 28.324219 C 35.675781 28.425781 35.558594 28.527344 35.433594 28.628906 C 32.175781 31.472656 30.226562 35.570312 28.773438 39.566406 C 28.699219 39.773438 28.621094 39.976562 28.542969 40.179688 C 27.882812 41.890625 27.449219 43.695312 27.078125 45.484375 C 27.023438 45.75 26.964844 46.011719 26.90625 46.273438 C 26.394531 48.5625 26.085938 50.878906 25.816406 53.207031 C 25.804688 53.292969 25.792969 53.375 25.785156 53.464844 C 25.480469 56.042969 25.453125 58.621094 25.453125 61.214844 C 25.453125 61.300781 25.453125 61.386719 25.453125 61.472656 C 25.449219 64.109375 25.503906 66.714844 25.835938 69.332031 C 25.859375 69.519531 25.882812 69.707031 25.90625 69.894531 C 26.199219 72.261719 26.546875 74.609375 27.023438 76.949219 C 27.042969 77.046875 27.0625 77.148438 27.082031 77.25 C 27.140625 77.535156 27.199219 77.820312 27.257812 78.105469 C 27.289062 78.246094 27.316406 78.386719 27.347656 78.53125 C 27.519531 79.320312 27.742188 80.085938 27.992188 80.851562 C 28.125 81.25 28.234375 81.644531 28.320312 82.058594 C 28.445312 82.652344 28.644531 83.214844 28.851562 83.785156 C 29.105469 84.480469 29.339844 85.179688 29.546875 85.890625 C 29.863281 86.945312 30.261719 87.9375 30.769531 88.917969 C 30.914062 89.203125 31.03125 89.484375 31.140625 89.785156 C 32.28125 92.722656 34.183594 95.546875 36.265625 97.894531 C 36.363281 98.003906 36.457031 98.113281 36.554688 98.226562 C 38.5625 100.484375 41.058594 102.382812 44.160156 102.679688 C 46.878906 102.75 49.152344 101.5625 51.128906 99.769531 C 55.027344 96.003906 57.207031 90.496094 58.554688 85.355469 C 58.765625 84.554688 58.765625 84.554688 58.914062 84.1875 C 59.058594 83.816406 59.113281 83.453125 59.179688 83.058594 C 59.277344 82.449219 59.386719 81.839844 59.515625 81.234375 C 59.835938 79.699219 60.0625 78.167969 60.230469 76.605469 C 60.238281 76.519531 60.25 76.433594 60.257812 76.34375 C 60.3125 75.804688 60.367188 75.265625 60.417969 74.726562 C 60.4375 74.523438 60.457031 74.316406 60.476562 74.113281 C 60.679688 72.105469 60.71875 70.113281 60.710938 68.097656 C 60.710938 67.941406 60.710938 67.785156 60.710938 67.621094 C 60.707031 65.40625 60.671875 63.199219 60.480469 60.988281 C 60.441406 60.546875 60.410156 60.109375 60.378906 59.671875 C 60.195312 57.371094 59.800781 55.132812 59.355469 52.871094 C 59.273438 52.460938 59.195312 52.054688 59.121094 51.644531 C 58.917969 50.570312 58.660156 49.53125 58.339844 48.488281 C 58.1875 47.992188 58.0625 47.488281 57.941406 46.984375 C 57.808594 46.4375 57.660156 45.910156 57.445312 45.386719 C 57.34375 45.101562 57.28125 44.820312 57.214844 44.527344 C 56.859375 43.054688 56.277344 41.636719 55.625 40.277344 C 55.484375 39.976562 55.359375 39.679688 55.246094 39.371094 C 54.90625 38.503906 54.472656 37.683594 54.042969 36.859375 C 53.976562 36.730469 53.976562 36.730469 53.910156 36.601562 C 53.148438 35.152344 52.277344 33.800781 51.320312 32.472656 C 51.265625 32.398438 51.210938 32.324219 51.152344 32.246094 C 49.082031 29.402344 46.195312 26.769531 42.632812 26.117188 C 40.007812 25.78125 37.773438 26.640625 35.792969 28.324219 Z M 35.792969 28.324219 "/>
<path style=" stroke:none;fill-rule:nonzero;fill:rgb(0.392157%,0.392157%,0.392157%);fill-opacity:1;" d="M 45.984375 71.464844 C 46.089844 71.484375 46.199219 71.503906 46.308594 71.523438 C 48.03125 71.84375 49.800781 72.902344 51.082031 74.074219 C 51.203125 74.171875 51.203125 74.171875 51.324219 74.269531 C 52.871094 75.539062 53.953125 77.308594 54.636719 79.171875 C 54.679688 79.289062 54.726562 79.40625 54.769531 79.53125 C 55.644531 82.015625 55.609375 84.632812 54.753906 87.109375 C 54.707031 87.3125 54.660156 87.511719 54.613281 87.710938 C 54.175781 89.148438 53.148438 90.519531 52.148438 91.613281 C 52.050781 91.722656 51.953125 91.832031 51.851562 91.945312 C 51.046875 92.796875 50.191406 93.402344 49.183594 93.984375 C 49.023438 94.082031 49.023438 94.082031 48.855469 94.179688 C 48.082031 94.601562 47.269531 94.878906 46.4375 95.148438 C 46.328125 95.183594 46.21875 95.21875 46.105469 95.257812 C 45.429688 95.464844 44.792969 95.601562 44.089844 95.644531 C 43.957031 95.652344 43.957031 95.652344 43.824219 95.664062 C 41.585938 95.78125 39.214844 95.34375 37.25 94.222656 C 37.171875 94.175781 37.089844 94.128906 37.007812 94.082031 C 34.082031 92.371094 32.257812 89.808594 31.171875 86.636719 C 31.101562 86.445312 31.101562 86.445312 31.035156 86.253906 C 30.636719 84.902344 30.785156 83.40625 30.816406 82.015625 C 30.933594 81.957031 30.933594 81.957031 31.050781 81.894531 C 31.066406 81.960938 31.082031 82.023438 31.097656 82.089844 C 31.414062 83.230469 32.140625 84.109375 33.152344 84.71875 C 34.210938 85.273438 35.425781 85.457031 36.59375 85.121094 C 36.851562 85.007812 37.089844 84.882812 37.332031 84.742188 C 37.460938 84.683594 37.585938 84.628906 37.71875 84.570312 C 38.097656 84.355469 38.34375 84.113281 38.636719 83.792969 C 38.738281 83.691406 38.835938 83.585938 38.941406 83.480469 C 39.710938 82.515625 39.839844 81.308594 39.734375 80.117188 C 39.601562 79.140625 39.167969 78.148438 38.398438 77.511719 C 37.464844 76.859375 36.554688 76.375 35.398438 76.394531 C 35.269531 76.394531 35.269531 76.394531 35.132812 76.394531 C 34.503906 76.410156 33.988281 76.523438 33.417969 76.804688 C 33.183594 76.917969 32.964844 76.984375 32.710938 77.035156 C 32.867188 76.445312 33.136719 76.039062 33.535156 75.585938 C 33.589844 75.519531 33.648438 75.453125 33.710938 75.382812 C 35.488281 73.363281 37.640625 72.03125 40.269531 71.4375 C 40.636719 71.367188 40.636719 71.367188 40.890625 71.230469 C 42.597656 70.980469 44.320312 70.996094 45.984375 71.464844 Z M 45.984375 71.464844 "/>
<path style=" stroke:none;fill-rule:nonzero;fill:rgb(0.392157%,0.392157%,0.392157%);fill-opacity:1;" d="M 89.125 71.820312 C 89.269531 71.875 89.269531 71.875 89.417969 71.925781 C 90.867188 72.464844 92.132812 73.277344 93.273438 74.3125 C 93.382812 74.410156 93.492188 74.503906 93.601562 74.605469 C 94.484375 75.4375 95.140625 76.355469 95.761719 77.394531 C 95.832031 77.507812 95.902344 77.625 95.972656 77.742188 C 96.363281 78.449219 96.597656 79.175781 96.808594 79.949219 C 96.832031 80.039062 96.855469 80.128906 96.882812 80.222656 C 97.429688 82.402344 97.410156 84.859375 96.710938 86.992188 C 96.675781 87.105469 96.644531 87.21875 96.605469 87.335938 C 95.59375 90.425781 93.316406 92.910156 90.445312 94.378906 C 87.417969 95.863281 84.152344 96.042969 80.941406 95.054688 C 77.523438 93.871094 75.148438 91.238281 73.601562 88.058594 C 73.546875 87.953125 73.496094 87.84375 73.441406 87.734375 C 72.574219 85.777344 72.730469 83.628906 72.769531 81.539062 C 72.886719 81.480469 72.886719 81.480469 73.007812 81.421875 C 73.011719 81.492188 73.019531 81.558594 73.027344 81.632812 C 73.171875 82.671875 73.664062 83.5625 74.453125 84.261719 C 74.714844 84.441406 74.976562 84.59375 75.257812 84.742188 C 75.335938 84.789062 75.414062 84.839844 75.492188 84.886719 C 76.347656 85.363281 77.394531 85.386719 78.339844 85.214844 C 79.464844 84.878906 80.585938 84.230469 81.183594 83.199219 C 81.828125 81.78125 82.03125 80.414062 81.476562 78.921875 C 80.875 77.722656 79.832031 76.96875 78.601562 76.519531 C 78.167969 76.394531 77.75 76.375 77.304688 76.378906 C 77.210938 76.378906 77.117188 76.378906 77.023438 76.378906 C 76.085938 76.40625 75.261719 76.707031 74.570312 77.355469 C 74.523438 77.40625 74.476562 77.457031 74.429688 77.511719 C 74.351562 77.472656 74.273438 77.433594 74.191406 77.394531 C 76.113281 74.289062 78.875 72.132812 82.445312 71.289062 C 84.648438 70.824219 87.03125 70.996094 89.125 71.820312 Z M 89.125 71.820312 "/>
<path style=" stroke:none;fill-rule:nonzero;fill:rgb(64.705884%,71.372551%,84.313726%);fill-opacity:1;" d="M 65.066406 53.453125 C 65.105469 53.453125 65.144531 53.453125 65.183594 53.453125 C 65.199219 54.167969 65.1875 54.882812 65.144531 55.597656 C 64.722656 62.46875 65.296875 69.34375 66.5625 76.097656 C 66.582031 76.1875 66.597656 76.28125 66.617188 76.375 C 66.792969 77.3125 66.980469 78.238281 67.265625 79.148438 C 67.324219 79.433594 67.292969 79.605469 67.199219 79.882812 C 66.816406 78.671875 66.441406 77.46875 66.261719 76.207031 C 66.179688 75.660156 66.085938 75.117188 65.972656 74.574219 C 65.589844 72.710938 65.320312 70.863281 65.148438 68.96875 C 65.136719 68.867188 65.128906 68.761719 65.117188 68.652344 C 65.058594 67.972656 65 67.289062 64.949219 66.605469 C 64.9375 66.476562 64.925781 66.347656 64.917969 66.210938 C 64.832031 65.082031 64.808594 63.960938 64.808594 62.828125 C 64.808594 62.640625 64.808594 62.453125 64.808594 62.265625 C 64.808594 61.875 64.808594 61.484375 64.808594 61.089844 C 64.808594 60.695312 64.808594 60.300781 64.804688 59.90625 C 64.796875 57.742188 64.800781 55.601562 65.066406 53.453125 Z M 65.066406 53.453125 "/>
<path style=" stroke:none;fill-rule:nonzero;fill:rgb(61.56863%,68.235296%,81.568629%);fill-opacity:1;" d="M 22.992188 56.535156 C 23.03125 56.535156 23.070312 56.535156 23.109375 56.535156 C 23.113281 56.628906 23.113281 56.722656 23.113281 56.820312 C 23.140625 63.207031 23.140625 63.207031 23.585938 69.570312 C 23.601562 69.71875 23.613281 69.867188 23.628906 70.019531 C 23.828125 71.941406 24.117188 73.828125 24.472656 75.726562 C 24.496094 75.851562 24.496094 75.851562 24.519531 75.980469 C 24.601562 76.40625 24.679688 76.832031 24.761719 77.253906 C 24.90625 78.007812 25.046875 78.761719 25.125 79.527344 C 24.710938 79.109375 24.675781 78.496094 24.546875 77.933594 C 24.515625 77.796875 24.484375 77.660156 24.453125 77.519531 C 24.152344 76.15625 23.945312 74.785156 23.761719 73.398438 C 23.710938 73.0625 23.652344 72.726562 23.585938 72.390625 C 23.46875 71.746094 23.398438 71.101562 23.34375 70.449219 C 23.328125 70.277344 23.328125 70.277344 23.3125 70.101562 C 23.292969 69.863281 23.273438 69.621094 23.253906 69.378906 C 23.222656 69.019531 23.191406 68.65625 23.160156 68.292969 C 23.109375 67.714844 23.0625 67.136719 23.015625 66.554688 C 23 66.371094 22.988281 66.183594 22.972656 65.996094 C 22.855469 64.574219 22.855469 63.152344 22.859375 61.726562 C 22.859375 61.328125 22.859375 60.925781 22.859375 60.523438 C 22.859375 59.1875 22.875 57.863281 22.992188 56.535156 Z M 22.992188 56.535156 "/>
<path style=" stroke:none;fill-rule:nonzero;fill:rgb(50.980395%,58.823532%,75.686276%);fill-opacity:1;" d="M 24.179688 74.785156 C 24.21875 74.785156 24.257812 74.785156 24.296875 74.785156 C 24.394531 75.308594 24.496094 75.832031 24.59375 76.351562 C 24.628906 76.53125 24.660156 76.707031 24.695312 76.886719 C 24.742188 77.140625 24.792969 77.398438 24.839844 77.65625 C 24.855469 77.734375 24.871094 77.8125 24.886719 77.890625 C 24.988281 78.433594 25.0625 78.976562 25.125 79.527344 C 24.832031 79.234375 24.808594 79.039062 24.714844 78.636719 C 24.683594 78.503906 24.652344 78.371094 24.621094 78.238281 C 24.589844 78.097656 24.558594 77.957031 24.527344 77.816406 C 24.492188 77.679688 24.460938 77.542969 24.429688 77.40625 C 24.242188 76.582031 24.066406 75.753906 24.058594 74.902344 C 24.097656 74.863281 24.136719 74.824219 24.179688 74.785156 Z M 24.179688 74.785156 "/>
<path style=" stroke:none;fill-rule:nonzero;fill:rgb(54.901963%,62.352943%,78.039217%);fill-opacity:1;" d="M 66.488281 76.089844 C 66.527344 76.089844 66.566406 76.089844 66.605469 76.089844 C 66.621094 76.15625 66.632812 76.222656 66.648438 76.292969 C 66.707031 76.597656 66.769531 76.90625 66.828125 77.214844 C 66.851562 77.320312 66.871094 77.425781 66.890625 77.535156 C 66.988281 78.019531 67.089844 78.503906 67.222656 78.980469 C 67.3125 79.382812 67.316406 79.511719 67.199219 79.882812 C 66.269531 76.957031 66.269531 76.957031 66.488281 76.089844 Z M 66.488281 76.089844 "/>
<path style=" stroke:none;fill-rule:nonzero;fill:rgb(45.882353%,54.901963%,74.117649%);fill-opacity:1;" d="M 65.539062 70.164062 C 65.578125 70.164062 65.617188 70.164062 65.660156 70.164062 C 65.683594 70.433594 65.710938 70.707031 65.734375 70.976562 C 65.746094 71.128906 65.761719 71.28125 65.773438 71.4375 C 65.777344 71.5625 65.777344 71.691406 65.777344 71.820312 C 65.699219 71.902344 65.621094 71.980469 65.539062 72.058594 C 65.34375 71.464844 65.34375 70.757812 65.539062 70.164062 Z M 65.539062 70.164062 "/>
<path style=" stroke:none;fill-rule:nonzero;fill:rgb(40.784314%,50.980395%,72.941178%);fill-opacity:1;" d="M 66.488281 76.089844 C 66.527344 76.089844 66.566406 76.089844 66.605469 76.089844 C 66.6875 76.636719 66.765625 77.183594 66.84375 77.75 C 66.726562 77.808594 66.726562 77.808594 66.605469 77.867188 C 66.410156 77.207031 66.347656 76.761719 66.488281 76.089844 Z M 66.488281 76.089844 "/>
<path style=" stroke:none;fill-rule:nonzero;fill:rgb(32.549021%,32.549021%,32.549021%);fill-opacity:1;" d="M 72.890625 81.421875 C 72.929688 81.421875 72.96875 81.421875 73.007812 81.421875 C 73.046875 81.734375 73.085938 82.046875 73.125 82.371094 C 73.007812 82.410156 72.890625 82.449219 72.769531 82.488281 C 72.757812 81.757812 72.757812 81.757812 72.769531 81.539062 C 72.808594 81.5 72.847656 81.460938 72.890625 81.421875 Z M 72.890625 81.421875 "/>
</g>
</svg>
